# xmcd
#
# Track frame offsets:
# 150
# 17054
# 33166
# 46463
# 60416
# 78812
# 93593
# 110247
# 119911
# 137672
# 150682
# 170089
# 201945
# 219768
#
# Disc length: 3210 seconds
#
#
# Revision: 0
# Processed by: cddbd v1.5.1PL2 Copyright (c) Steve Scherf et al.
# Submitted via: FreeRIP 2.945 
#
DISCID=c10c880e
DTITLE=Hancats - Still alive
DYEAR=2001
DGENRE=Blues
TTITLE0=Giving you up
TTITLE1=Loving you
TTITLE2=If you really wanne
TTITLE3=Let's loosen up
TTITLE4=Till monday
TTITLE5=Why do I kiss you
TTITLE6=High school boogie
TTITLE7=Ten little women
TTITLE8=All right
TTITLE9=You gotta rock
TTITLE10=Sixpack
TTITLE11=The beat of love
TTITLE12=Teenage boogie
TTITLE13=Fever
EXTD=
EXTT0=
EXTT1=
EXTT2=
EXTT3=
EXTT4=
EXTT5=
EXTT6=
EXTT7=
EXTT8=
EXTT9=
EXTT10=
EXTT11=
EXTT12=
EXTT13=
PLAYORDER=
